# xmcd CD Database Entry
#
# Track frame offsets:
# 150
# 16370
# 37407
# 53215
# 69550
# 89937
# 108215
# 125695
# 145007
# 162735
# 183605
# 200720
# 220015
# 233417
#
# Disc length: 3341 seconds
#
# Revision: 1
# Processed by: cddbd v1.4b41PL1 Copyright (c) Steve Scherf et al.
# Submitted via: tcd 2.0b
#
DISCID=d70d0b0e
DTITLE=roxette - HAVE A NICE DAY
DYEAR=1900
DGENRE=
TTITLE0=Crush On You
TTITLE1=WISH I COULD FLY
TTITLE2=You Can't Put Your Arms Around What's Already Gone
TTITLE3=WAITING FOR THE RAIN
TTITLE4=Anyone
TTITLE5=IT WILL TAKE A LONG LONG TIME
TTITLE6=7TWENTY7
TTITLE7=I Was So Lucky
TTITLE8=STARS
TTITLE9=SALVATION
TTITLE10=Pay The Price
TTITLE11=COOPER
TTITLE12=STARING AT
TTITLE13=Beautiful Things
EXTD=\t
EXTT0=
EXTT1=
EXTT2=
EXTT3=
EXTT4=
EXTT5=
EXTT6=
EXTT7=
EXTT8=
EXTT9=
EXTT10=
EXTT11=
EXTT12=
EXTT13=
PLAYORDER=
